# xmcd
#
# Track frame offsets: 
#        150
#        24032
#        43955
#        62759
#        82453
#        105898
#        118419
#        139968
#        163183
#        189099
#        208719
#        222660
#        239890
#
# Disc length: 3452 seconds
#
# Revision: 2
# Processed by: cddbd v1.5.2PL0 Copyright (c) Steve Scherf et al.
# Submitted via: ExactAudioCopy v0.90b4
#
DISCID=c90d7a0d
DTITLE=Blues Up Front - All The Way From Dublin
DYEAR=1999
DGENRE=Hard Rock
TTITLE0=Dust My Broom
TTITLE1=Mule To Ride
TTITLE2=Worried Life Blues
TTITLE3=Me And My Guitar
TTITLE4=Same Ole Blues
TTITLE5=Looking Back
TTITLE6=It Hurts Me Too
TTITLE7=Born Under A Bad Sign
TTITLE8=The Road
TTITLE9=Before You Accuse Me
TTITLE10=You Don't Have To Go
TTITLE11=The Heart Of The City
TTITLE12=Before You Accuse Me
EXTD=Recorded in Sweden by Record Heaven, Tygelsjö\nwww.recordheaven.n
EXTD=et\ninfo@recordheaven.net
EXTT0=
EXTT1=
EXTT2=
EXTT3=
EXTT4=
EXTT5=
EXTT6=
EXTT7=
EXTT8=
EXTT9=
EXTT10=
EXTT11=
EXTT12=
PLAYORDER=
